<?xml version="1.0"?>
<svg xmlns="http://www.w3.org/2000/svg" id="Layer_1" enable-background="new 0 0 509.907 509.907" height="512px" viewBox="0 0 509.907 509.907" width="512px"><g><g><circle cx="168.538" cy="62.425" r="43.571" data-original="#000000" class="active-path" data-old_color="#000000" fill="#9BA2B9"/><circle cx="370.068" cy="45.124" r="45.124" data-original="#000000" class="active-path" data-old_color="#000000" fill="#9BA2B9"/><g><path d="m477.216 273.83v-146.208c0-.036 0-.072 0-.107-.14-27.528-22.735-49.924-50.369-49.924h-9.669c-10.338 14.955-27.595 24.777-47.11 24.777s-36.772-9.823-47.11-24.777h-9.078c-27.961 0-50.82 22.396-50.958 49.925v.106 39.116c-4.412-12.412-8.474-23.958-11.66-33.229-7.823-22.765-20.002-36.296-36.284-40.394-9.98 15.052-27.067 25.001-46.44 25.001-19.416 0-36.533-9.994-46.504-25.101-16.487 3.972-28.806 17.537-36.695 40.492-13.183 38.361-41.336 115.628-47.408 132.268-15.881 1.683-28.296 15.155-28.296 31.475v26.905c0 5.379 4.059 10.076 9.426 10.424 5.882.381 10.773-4.277 10.773-10.078v-27.251c0-5.259 3.566-9.689 8.403-11.03 2.319 4.05 6.018 7.34 10.744 9.068 1.227.449 2.47.759 3.714.965.029.33.051.661.051.998v202.211c0 5.379 4.059 10.076 9.427 10.424 5.882.382 10.773-4.277 10.773-10.078v-202.558c0-2.841-.382-5.593-1.087-8.214 1.431-1.741 2.614-3.732 3.432-5.969.286-.781 24.336-66.584 40.764-113.09l-29.136 152.747c-1.366 7.056 4.071 13.574 11.187 13.574h15.652v148.234c0 13.799 11.293 25.426 25.09 25.164 13.374-.253 24.139-11.174 24.139-24.61v-148.788h10.626v148.234c0 13.799 11.293 25.426 25.09 25.164 13.375-.253 24.139-11.174 24.139-24.61v-148.788h15.652c7.14 0 12.554-6.513 11.187-13.574l-29.134-152.747s21.105 57.563 42.589 116.069c8.381 22.822 42.191 16.812 42.191-7.501v-150.848c.041-4.035 4.134-7.701 8.58-7.701v363.565c0 14.268 11.677 26.295 25.943 26.031 13.83-.256 24.963-11.548 24.963-25.439v-203.371h10.984v202.797c0 14.311 11.713 26.329 26.02 26.011 13.783-.306 24.768-11.578 24.768-25.437v-364.157c4.281 0 8.182 3.519 8.227 7.693v155.7c0 4.323 1.3 8.338 3.521 11.69-.888 2.915-1.37 6.006-1.37 9.208v195.151c0 5.379 4.059 10.076 9.426 10.424 5.882.381 10.773-4.277 10.773-10.078v-195.25c7.238-.388 13.497-4.393 17.018-10.252 3.511 1.959 5.893 5.708 5.893 10.005v26.905c0 5.379 4.059 10.076 9.426 10.424 5.882.382 10.773-4.276 10.773-10.078v-27.251c0-14.474-9.769-26.7-23.056-30.457z" data-original="#000000" class="active-path" data-old_color="#000000" fill="#9BA2B9"/></g></g></g> </svg>
