<?xml version="1.0"?>
<svg xmlns="http://www.w3.org/2000/svg" id="Capa_1" enable-background="new 0 0 512 512" height="512px" viewBox="0 0 512 512" width="512px" class=""><g><g><g><path d="m295 512h-70c-8.284 0-15-6.716-15-15v-54.362l-48.823-35.507c-3.881-2.822-6.177-7.332-6.177-12.131v-40c0-4.557 2.071-8.866 5.629-11.713l19.371-15.496v-18.11l-15.035-13.531c-3.16-2.845-4.965-6.898-4.965-11.15v-45h-14.188l-6.582 19.743c-2.041 6.126-7.773 10.257-14.23 10.257h-30c-2.016 0-4.012-.406-5.867-1.195l-80-34c-5.538-2.353-9.133-7.788-9.133-13.805v-40.667c0-7.07 4.938-13.181 11.85-14.666l37.816-8.122v-1.523l-23.424-16.844c-3.919-2.818-6.242-7.35-6.242-12.178v-21.333c0-5.54 3.053-10.628 7.941-13.235l12.059-6.432v-41c0-8.284 6.716-15 15-15h23.787l25.607-25.606c2.813-2.813 6.628-4.394 10.606-4.394h60c8.284 0 15 6.716 15 15v24.738l12.21 15.262h27.36l25.828-21.523c4.334-3.611 10.327-4.486 15.512-2.264l70 30c4.147 1.777 7.274 5.328 8.514 9.667l16.891 59.12h18.685c7.15 0 13.307 5.047 14.708 12.058l7.589 37.942h13.162l26.221-17.481c4.603-3.068 10.52-3.355 15.398-.744 4.877 2.61 7.922 7.693 7.922 13.225v60c0 5.682-3.21 10.875-8.292 13.417l-71.708 35.854v12.93l16.099 17.709c2.51 2.761 3.901 6.359 3.901 10.09v30c0 5.245-2.74 10.109-7.226 12.828l-33 20c-2.344 1.421-5.033 2.172-7.774 2.172h-22v2.081l19.737 16.842c3.34 2.85 5.263 7.02 5.263 11.41v32c0 4.518-2.037 8.795-5.544 11.644l-55 44.667c-2.673 2.171-6.012 3.356-9.456 3.356z" data-original="#000000" class="active-path" data-old_color="#000000" fill="#FFFFFF"/><path d="m467 480h-30c-8.284 0-15-6.716-15-15v-70c0-6.134 3.734-11.649 9.429-13.927l50-20c4.137-1.655 8.798-1.385 12.715.738 3.918 2.123 6.69 5.877 7.564 10.247l10 50c.837 4.185-.148 8.528-2.708 11.942l-30 40c-2.833 3.777-7.279 6-12 6z" data-original="#000000" class="active-path" data-old_color="#000000" fill="#FFFFFF"/></g></g></g> </svg>
