<?xml version="1.0"?>
<svg xmlns="http://www.w3.org/2000/svg" id="Capa_1" enable-background="new 0 0 512 512" height="512px" viewBox="0 0 512 512" width="512px"><g><g><g><path d="m373.5 195c0-30.376-24.624-55-55-55h-125c-5.565 0-10.011 4.553-10 10.118.064 32.531 26.455 58.882 59 58.882h30.122c8.769 0 15.878 7.109 15.878 15.878 0 7.584-5.525 13.938-12.995 15.249-35.183 6.171-62.005 36.948-62.005 73.873 0 8.453-6.993 15.273-15.509 14.992-8.135-.269-14.521-7.253-14.491-15.392.116-30.912 13.668-58.706 35.097-77.864-12.954-3.616-24.718-10.104-34.578-18.72-6.083 1.933-12.555 2.984-19.27 2.984-12.388 0-23.954-3.564-33.75-9.703-9.796 6.139-21.362 9.703-33.75 9.703s-23.954-3.564-33.75-9.703v59.501c0 30.095 15.11 57.723 40 73.709v18.493h210v-17c36.294-16.572 60-52.863 60-93.45v-56.55z" data-original="#000000" class="active-path" data-old_color="#000000" fill="#FFFFFF"/><path d="m97.25 190c18.64 0 33.75-15.11 33.75-33.75 0 18.052 14.172 32.792 31.996 33.705-6.046-11.974-9.468-25.487-9.496-39.778-.021-10.748 4.143-20.851 11.724-28.445 7.55-7.566 17.592-11.732 28.276-11.732h5 67.5 52.5c5.12 0 10.127.48 15 1.352v-57.602c0-18.64-15.11-33.75-33.75-33.75-18.64 0-33.75 15.11-33.75 33.75v-20c0-18.64-15.11-33.75-33.75-33.75-18.64 0-33.75 15.11-33.75 33.75v20c0-18.64-15.11-33.75-33.75-33.75-18.64 0-33.75 15.11-33.75 33.75v20c0-18.64-15.11-33.75-33.75-33.75-18.64 0-33.75 15.11-33.75 33.75v82.5c0 18.64 15.11 33.75 33.75 33.75z" data-original="#000000" class="active-path" data-old_color="#000000" fill="#FFFFFF"/><path d="m369.825 374.914 55 30 23.675-12.914v-60z" data-original="#000000" class="active-path" data-old_color="#000000" fill="#FFFFFF"/><path d="m353.5 460.182 95 51.818v-60l-95-51.818z" data-original="#000000" class="active-path" data-old_color="#000000" fill="#FFFFFF"/><path d="m93.5 392h230v60h-230z" data-original="#000000" class="active-path" data-old_color="#000000" fill="#FFFFFF"/></g><g><path d="m298.5 512h-180c-8.284 0-15-6.716-15-15v-15h210v15c0 8.284-6.716 15-15 15z" data-original="#000000" class="active-path" data-old_color="#000000" fill="#FFFFFF"/></g></g></g> </svg>
